<svg id="Layer_1" height="512" viewBox="0 0 512 512" width="512" xmlns="http://www.w3.org/2000/svg" data-name="Layer 1"><path d="m376.06 377.69-270.97-37.67a30.4 30.4 0 0 0 -34.29 25.92l-4.19 30.11 331.19 46.04 4.19-30.1a30.407 30.407 0 0 0 -25.93-34.3z" fill="#4689d3"/><path d="m301.96 63.47a15.22 15.22 0 0 1 -.15 2.12l-3.48 25.09-.2.83a133.255 133.255 0 0 0 -14.86-2.93 128.733 128.733 0 0 0 -15.07-1.22l.02-.87 3.49-25.09a15.2 15.2 0 0 1 30.25 2.07z" fill="#4689d3"/><path d="m396.87 218.88a132.208 132.208 0 0 1 -1.27 18.31l-19.54 140.5-260.93-36.27v-.01l19.54-140.5a131.711 131.711 0 0 1 133.53-113.55 128.733 128.733 0 0 1 15.07 1.22 133.255 133.255 0 0 1 14.86 2.93 131.778 131.778 0 0 1 98.74 127.37z" fill="#5fa8ed"/><path d="m267.22 423.94-.68 4.84a40.53 40.53 0 1 1 -80.28-11.22l.67-4.78z" fill="#5fa8ed"/><path d="m105.09 340.02a30.4 30.4 0 0 0 -34.29 25.92l-4.19 30.11 26.053 3.622 4.137-29.732a30.4 30.4 0 0 1 34.29-25.92z" fill="#6db6f7"/><path d="m294.2 91.36q1.958.043 3.926.149a133.183 133.183 0 0 0 -14.856-2.929 128.733 128.733 0 0 0 -15.07-1.22 131.711 131.711 0 0 0 -133.53 113.55l-19.54 140.5v.01l26.051 3.621 19.489-140.131a131.711 131.711 0 0 1 133.53-113.55z" fill="#9cd2ff"/><g fill="#284268"><path d="m194.879 150.087a5.979 5.979 0 0 0 3.9-1.445c2.855-2.448 5.855-4.8 8.918-6.978a125.5 125.5 0 0 1 36.986-18.083 6 6 0 0 0 -3.427-11.5 137.543 137.543 0 0 0 -40.523 19.81c-3.354 2.39-6.639 4.961-9.765 7.641a6 6 0 0 0 3.908 10.555z"/><path d="m182.079 156.455a6 6 0 0 0 -8.441.872c-1.633 2.009-3.234 4.1-4.759 6.207a6 6 0 1 0 9.725 7.029c1.393-1.926 2.855-3.834 4.346-5.667a6 6 0 0 0 -.871-8.441z"/><path d="m382.764 373.075 18.778-135.059a137.77 137.77 0 0 0 -96.67-150.853l2.885-20.751a21.2 21.2 0 1 0 -41.993-5.839l-2.887 20.763c-66.7 1.047-124.689 50.67-134.155 118.747l-18.709 134.561-4.093-.569a36.154 36.154 0 0 0 -27.443 7.386 37.3 37.3 0 0 0 -13.716 24.339l-4.09 29.42a6 6 0 0 0 5.117 6.768l114.4 15.906a46.505 46.505 0 0 0 39.776 51.36 46.49 46.49 0 0 0 52.342-38.554l124.667 17.333a5.892 5.892 0 0 0 .826.058 6.018 6.018 0 0 0 5.144-2.9 6.261 6.261 0 0 0 .82-2.425l4.165-29.956a36.449 36.449 0 0 0 -25.164-39.735zm-105.115-310.849a9.2 9.2 0 1 1 18.223 2.534l-2.705 19.454c-2.993-.618-6.015-1.149-9.069-1.573s-6.114-.737-9.154-.956zm-56.025 395.144a34.512 34.512 0 0 1 -29.552-37.822l68.346 9.5a34.564 34.564 0 0 1 -38.794 28.322zm174.418-46.21-3.359 24.165-319.3-44.394 3.289-23.656a25.069 25.069 0 0 1 8.83-16.069 24.263 24.263 0 0 1 18.766-5.246l42.406 5.9a6 6 0 0 0 6.629-4.418 6 6 0 0 0 -4.977-7.467l-26.426-3.675 18.709-134.562a125.722 125.722 0 1 1 249.048 34.628l-18.71 134.558-182.721-25.4a6 6 0 0 0 -1.653 11.885l188.664 26.231a24.425 24.425 0 0 1 20.805 27.52z"/><path d="m470.418 188.947a74.179 74.179 0 0 0 -48.734-65.882 6 6 0 1 0 -4.11 11.274 62.288 62.288 0 0 1 6.042 114.461 6 6 0 1 0 5.274 10.779 74.169 74.169 0 0 0 41.528-70.632z"/><path d="m434.644 89.421a6 6 0 1 0 -4.111 11.273 98.06 98.06 0 0 1 9.512 180.2 6 6 0 1 0 5.275 10.78 110.06 110.06 0 0 0 -10.676-202.253z"/><path d="m88.383 151.717a6 6 0 1 0 -5.274-10.779 74.287 74.287 0 0 0 7.206 136.516 6 6 0 1 0 4.111-11.273 62.288 62.288 0 0 1 -6.043-114.464z"/><path d="m79.41 311.464a6 6 0 0 0 2.056-11.639 98.06 98.06 0 0 1 -9.512-180.2 6 6 0 1 0 -5.275-10.779 110.061 110.061 0 0 0 10.676 202.254 5.979 5.979 0 0 0 2.055.364z"/></g></svg>