<?xml version="1.0" encoding="iso-8859-1"?>
<!-- Generator: Adobe Illustrator 19.0.0, SVG Export Plug-In . SVG Version: 6.00 Build 0)  -->
<svg version="1.1" id="Capa_1" xmlns="http://www.w3.org/2000/svg" xmlns:xlink="http://www.w3.org/1999/xlink" x="0px" y="0px"
	 viewBox="0 0 384 384" style="enable-background:new 0 0 384 384;" xml:space="preserve">
<circle style="fill:#4DD0E1;" cx="192" cy="192" r="176"/>
<g>
	<path style="fill:#012E52;" d="M252.688,140.688L184,209.368l-28.688-28.68c-6.24-6.248-16.384-6.248-22.624,0
		c-6.248,6.248-6.248,16.376,0,22.624l40,40C175.808,246.44,179.904,248,184,248s8.192-1.56,11.312-4.688l80-80
		c6.248-6.248,6.248-16.376,0-22.624C269.072,134.44,258.928,134.44,252.688,140.688z"/>
	<path style="fill:#012E52;" d="M368,176c-8.832,0-16,7.168-16,16c0,88.224-71.776,160-160,160S32,280.224,32,192S103.776,32,192,32
		c42.952,0,83.264,16.792,113.52,47.272c6.224,6.28,16.352,6.312,22.632,0.088c6.272-6.224,6.312-16.352,0.08-22.624
		C291.928,20.152,243.544,0,192,0C86.128,0,0,86.128,0,192s86.128,192,192,192s192-86.128,192-192C384,183.168,376.832,176,368,176z
		"/>
</g>
<g>
</g>
<g>
</g>
<g>
</g>
<g>
</g>
<g>
</g>
<g>
</g>
<g>
</g>
<g>
</g>
<g>
</g>
<g>
</g>
<g>
</g>
<g>
</g>
<g>
</g>
<g>
</g>
<g>
</g>
</svg>
