<svg enable-background="new 0 0 24 24" height="512" viewBox="0 0 24 24" width="512" xmlns="http://www.w3.org/2000/svg"><path d="m12 0c-6.617 0-12 5.383-12 12s5.383 12 12 12 12-5.383 12-12-5.383-12-12-12z" fill="#f44336"/><path d="m12 24c-6.617 0-12-5.383-12-12s5.383-12 12-12 12 5.383 12 12-5.383 12-12 12zm0-22.5c-5.79 0-10.5 4.71-10.5 10.5s4.71 10.5 10.5 10.5 10.5-4.71 10.5-10.5-4.71-10.5-10.5-10.5z"/><path d="m8.288 16.463c-.192 0-.384-.073-.53-.22-.293-.293-.293-.768 0-1.061l7.425-7.425c.293-.293.768-.293 1.061 0s.293.768 0 1.061l-7.425 7.425c-.148.147-.34.22-.531.22z"/><path d="m15.712 16.463c-.192 0-.384-.073-.53-.22l-7.425-7.425c-.293-.293-.293-.768 0-1.061s.768-.293 1.061 0l7.425 7.425c.293.293.293.768 0 1.061-.147.147-.339.22-.531.22z"/></svg>