<svg height="512" viewBox="0 0 128 128" width="512" xmlns="http://www.w3.org/2000/svg"><path d="m116.5 13.035h-101a8.009 8.009 0 0 0 -8 8v70.55a8.009 8.009 0 0 0 8 8h38.666l-1.208 8.078a5.407 5.407 0 0 1 -5.314 4.58h-.514a5.729 5.729 0 0 0 -5.722 5.722 1 1 0 0 0 1 1h47.184a1 1 0 0 0 1-1 5.729 5.729 0 0 0 -5.722-5.722h-.514a5.407 5.407 0 0 1 -5.314-4.58l-1.208-8.078h38.666a8.009 8.009 0 0 0 8-8v-70.55a8.009 8.009 0 0 0 -8-8z" fill="#e6e7e8"/><rect fill="#6dc9f7" height="84.549" rx="7" transform="matrix(-1 0 0 -1 124 104.62)" width="115" x="4.5" y="10.035"/><path d="m112.5 10.035h-3a7 7 0 0 1 7 7v70.55a7 7 0 0 1 -7 7h3a7 7 0 0 0 7-7v-70.55a7 7 0 0 0 -7-7z" fill="#fff"/><rect fill="#d4fbff" height="64.78" rx="5" transform="matrix(-1 0 0 -1 124 99.418)" width="100.433" x="11.783" y="17.319"/><path d="m33.161 68.232a19.471 19.471 0 0 0 25.592-18.484h-19.471z" fill="#ffd7e5"/><path d="m39.282 30.276a19.471 19.471 0 0 0 -6.121 37.956l6.121-18.484z" fill="#0089ef"/><path d="m39.282 30.276v19.472h19.471a19.472 19.472 0 0 0 -19.471-19.472z" fill="#fa759e"/><path d="m69.75 45.306h6.75v22.926h-6.75z" fill="#ffd7e5"/><path d="m80.75 37.306h6.75v30.926h-6.75z" fill="#0089ef"/><path d="m91.75 50.306h6.75v17.926h-6.75z" fill="#fa759e"/><path d="m80.87 109.243h-.513a6.374 6.374 0 0 1 -6.3-5.432l-1.379-9.226h-21.352l-1.379 9.226a6.374 6.374 0 0 1 -6.3 5.432h-.517a4.722 4.722 0 0 0 -4.722 4.722h47.184a4.722 4.722 0 0 0 -4.722-4.722z" fill="#0089ef"/><circle cx="62" cy="88.113" fill="#0089ef" r="3.121"/><g fill="#3a2c60"><path d="m51.25 18.318h8.5a1 1 0 0 0 0-2h-8.5a1 1 0 0 0 0 2z"/><path d="m107.217 16.318h-42.717a1 1 0 0 0 0 2h42.717a4 4 0 0 1 4 4v54.782a4 4 0 0 1 -4 4h-90.434a4 4 0 0 1 -4-4v-54.782a4 4 0 0 1 4-4h29.967a1 1 0 0 0 0-2h-29.967a6.007 6.007 0 0 0 -6 6v54.782a6.007 6.007 0 0 0 6 6h90.434a6.007 6.007 0 0 0 6-6v-54.782a6.007 6.007 0 0 0 -6-6z"/><path d="m39.281 29.276a20.472 20.472 0 1 0 20.472 20.472 20.495 20.495 0 0 0 -20.472-20.472zm-18.47 20.472a18.494 18.494 0 0 1 17.47-18.448v18.287l-5.747 17.355a18.433 18.433 0 0 1 -11.723-17.194zm18.47 18.471a18.425 18.425 0 0 1 -4.847-.648l5.566-16.823h17.727a18.5 18.5 0 0 1 -18.446 17.471zm1-19.471v-17.448a18.5 18.5 0 0 1 17.446 17.448z"/><path d="m64.5 69.232h39.5a1 1 0 0 0 0-2h-4.5v-16.926a1 1 0 0 0 -1-1h-6.75a1 1 0 0 0 -1 1v16.926h-2.25v-29.926a1 1 0 0 0 -1-1h-6.75a1 1 0 0 0 -1 1v29.926h-2.25v-21.926a1 1 0 0 0 -1-1h-6.75a1 1 0 0 0 -1 1v21.926h-3.25v-36.044a1 1 0 0 0 -2 0v37.044a1 1 0 0 0 1 1zm28.25-17.926h4.75v15.926h-4.75zm-11-13h4.75v28.926h-4.75zm-11 8h4.75v20.926h-4.75z"/><path d="m112.5 9.035h-101a8.009 8.009 0 0 0 -8 8v70.55a8.009 8.009 0 0 0 8 8h38.665l-1.207 8.078a5.34 5.34 0 0 1 -5.314 4.579h-.514a5.73 5.73 0 0 0 -5.723 5.723 1 1 0 0 0 1 1h47.186a1 1 0 0 0 1-1 5.73 5.73 0 0 0 -5.723-5.723h-.514a5.34 5.34 0 0 1 -5.314-4.579l-1.207-8.078h38.665a8.009 8.009 0 0 0 8-8v-70.55a8.009 8.009 0 0 0 -8-8zm-39.437 94.923a7.42 7.42 0 0 0 7.293 6.284h.514a3.73 3.73 0 0 1 3.586 2.723h-44.912a3.73 3.73 0 0 1 3.586-2.723h.514a7.42 7.42 0 0 0 7.293-6.284l1.25-8.373h19.625zm45.437-16.373a6.006 6.006 0 0 1 -6 6h-101a6.006 6.006 0 0 1 -6-6v-70.55a6.007 6.007 0 0 1 6-6h101a6.007 6.007 0 0 1 6 6z"/></g></svg>