<?xml version="1.0" encoding="iso-8859-1"?>
<!-- Generator: Adobe Illustrator 19.0.0, SVG Export Plug-In . SVG Version: 6.00 Build 0)  -->
<svg version="1.1" id="Capa_1" xmlns="http://www.w3.org/2000/svg" xmlns:xlink="http://www.w3.org/1999/xlink" x="0px" y="0px"
	 viewBox="0 0 512 512" style="enable-background:new 0 0 512 512;" xml:space="preserve">
<path style="fill:#FF5D49;" d="M377.053,294.633c0,102.055-82.73,184.775-184.775,184.775c-102.055,0-184.775-82.72-184.775-184.775
	c0-102.046,82.72-184.775,184.775-184.775h0.263c75.785,0.107,140.882,45.839,169.282,111.207
	C371.616,243.61,377.053,268.49,377.053,294.633z"/>
<path style="fill:#EA2E1F;" d="M361.822,221.065c-16.758,9.989-24.451,25.054-24.451,46.782v49.136
	c0,6.964-2.714,13.519-7.625,18.46c-4.97,4.97-11.535,7.693-18.518,7.693c-28.585,0-51.83-23.255-51.83-51.83v-48.124
	c0-3.336-2.714-6.04-6.04-6.04h-56.849c-17.944,0-32.543-14.599-32.543-32.543V192.14c0-10.932,5.427-20.629,13.733-26.533
	c-0.691-2.558-1.05-5.242-1.05-7.995v-13.908c0-11.778,6.555-22.059,16.204-27.379c-0.204-1.41-0.311-2.85-0.311-4.309v-2.159
	C268.326,109.965,333.422,155.697,361.822,221.065z"/>
<rect x="447.7" y="49.695" style="fill:#FFBF00;" width="56.8" height="140.6"/>
<rect x="447.7" y="49.695" style="fill:#F79800;" width="36.06" height="140.6"/>
<path style="fill:#FFC197;" d="M178.551,204.597v-12.452c0-9.911,8.034-17.945,17.945-17.945h10.197
	c-8.629-0.617-15.457-7.799-15.457-16.59v-13.909c0-9.196,7.455-16.651,16.65-16.651h14.273c-8.305,0-15.032-6.727-15.032-15.032
	v-11.987c0-8.302,6.73-15.032,15.032-15.032h13.828c-8.305,0-15.032-6.737-15.032-15.042v-8.952c0-8.295,6.727-15.032,15.032-15.032
	h201.96v145.353c-23.317,0-42.061,2.347-57.083,6.413c-48.08,12.979-58.084,43.417-58.084,70.112c0,13.798,0,49.132,0,49.132
	c0,3.186-1.295,6.08-3.379,8.174c-2.094,2.094-4.977,3.389-8.173,3.389c-20.575,0-37.246-16.671-37.246-37.236v-48.131
	c0-11.391-9.235-20.626-20.626-20.626h-56.85C186.59,222.553,178.551,214.514,178.551,204.597z"/>
<path style="fill:#FF9E5C;" d="M384.811,196.739c14.325-3.446,31.815-5.413,53.138-5.413V45.973h-53.138V196.739z"/>
<rect x="397.65" y="32.849" style="fill:#FFD96E;" width="72.12" height="174.29"/>
<path d="M130.105,387.526c1.451,2.135,3.809,3.285,6.209,3.285c1.452,0,2.918-0.421,4.209-1.298
	c31.921-21.697,71.58-21.697,103.501,0c3.426,2.328,8.091,1.439,10.419-1.986c2.329-3.426,1.439-8.09-1.986-10.419
	c-18.051-12.27-38.862-18.756-60.183-18.756s-42.132,6.486-60.183,18.756C128.666,379.436,127.776,384.1,130.105,387.526z"/>
<path d="M136.308,273.781c4.142,0,7.5-3.358,7.5-7.5v-5.68c0-4.142-3.358-7.5-7.5-7.5s-7.5,3.358-7.5,7.5v5.68
	C128.808,270.423,132.166,273.781,136.308,273.781z"/>
<path d="M255.207,266.281v-5.68c0-4.142-3.358-7.5-7.5-7.5s-7.5,3.358-7.5,7.5v5.68c0,4.142,3.358,7.5,7.5,7.5
	S255.207,270.423,255.207,266.281z"/>
<path d="M504.5,94.16c4.142,0,7.5-3.358,7.5-7.5V49.69c0-4.142-3.358-7.5-7.5-7.5h-27.23v-9.341c0-4.142-3.358-7.5-7.5-7.5h-72.12
	c-4.142,0-7.5,3.358-7.5,7.5v5.621h-25.98c-4.142,0-7.5,3.358-7.5,7.5s3.358,7.5,7.5,7.5h25.98v134.453
	c-49.672,9.663-74.86,36.522-74.86,79.928v49.13c0,1.089-0.419,2.106-1.194,2.877c-0.446,0.445-1.412,1.193-2.876,1.193
	c-16.393,0-29.73-13.341-29.73-29.74v-48.14c0-15.505-12.619-28.12-28.13-28.12H196.5c-5.762,0-10.45-4.688-10.45-10.45v-12.45
	c0-5.768,4.688-10.46,10.45-10.46h10.117c0.026,0,0.051,0.004,0.077,0.004h15.223c4.142,0,7.5-3.358,7.5-7.5s-3.358-7.5-7.5-7.5
	h-14.821c-4.695-0.396-8.356-4.359-8.356-9.084V143.7c0-5.045,4.1-9.15,9.14-9.15h13.081c0.033,0,0.064,0.005,0.097,0.005h15.223
	c4.142,0,7.5-3.358,7.5-7.5s-3.358-7.5-7.5-7.5h-14.024c-0.033,0-0.064-0.005-0.097-0.005c-4.158,0-7.54-3.378-7.54-7.53v-11.99
	c0-4.152,3.382-7.53,7.54-7.53h11.32c0.075,0.002,0.147,0.011,0.223,0.011h15.224c4.142,0,7.5-3.358,7.5-7.5s-3.358-7.5-7.5-7.5
	h-12.714c-0.075-0.002-0.147-0.011-0.223-0.011c-4.152,0-7.53-3.382-7.53-7.54v-8.95c0-4.158,3.378-7.54,7.53-7.54h97.84
	c4.142,0,7.5-3.358,7.5-7.5s-3.358-7.5-7.5-7.5h-97.84c-12.423,0-22.53,10.111-22.53,22.54v8.95c0,3.061,0.613,5.981,1.723,8.645
	c-9.024,2.943-15.563,11.436-15.563,21.425v2.473c-2.455-0.093-4.91-0.143-7.35-0.143C86.252,102.361,0,188.617,0,294.64
	c0,47.642,17.557,93.349,49.437,128.703c31.642,35.089,74.817,57.248,121.572,62.393c0.279,0.031,0.555,0.045,0.83,0.045
	c3.774,0,7.023-2.842,7.446-6.68c0.453-4.117-2.518-7.822-6.635-8.275C82.775,460.936,15,385.193,15,294.64
	c0-97.752,79.523-177.28,177.27-177.28c2.676,0,5.371,0.068,8.063,0.188c0.254,0.999,0.55,1.981,0.933,2.923
	c-10.105,2.884-17.525,12.206-17.525,23.229v13.91c0,3.997,0.991,7.791,2.745,11.134c-9.068,3.898-15.435,12.922-15.435,23.406
	v12.45c0,14.033,11.417,25.45,25.45,25.45h56.86c7.24,0,13.13,5.886,13.13,13.12v48.14c0,24.669,20.066,44.74,44.73,44.74
	c5.093,0,9.881-1.984,13.47-5.574c3.611-3.594,5.6-8.387,5.6-13.496v-49.13c0-15.505,3.031-34.824,22.214-49.092
	c11.16,23.553,17.046,49.611,17.046,75.882c0,94.301-73.696,172.058-167.775,177.021c-4.136,0.218-7.313,3.749-7.095,7.885
	c0.211,4.002,3.522,7.105,7.483,7.105c0.133,0,0.267-0.003,0.401-0.01c102.047-5.383,181.985-89.72,181.985-192
	c0-28.932-6.583-57.637-19.061-83.504c6.837-3.166,14.977-5.86,24.661-7.92v3.92c0,4.142,3.358,7.5,7.5,7.5h72.12
	c4.142,0,7.5-3.358,7.5-7.5v-9.345h27.23c4.142,0,7.5-3.358,7.5-7.5v-73.3c0-4.142-3.358-7.5-7.5-7.5s-7.5,3.358-7.5,7.5v65.8
	h-19.73v-125.6H497v29.47C497,90.802,500.358,94.16,504.5,94.16z M462.27,199.636h-57.12V40.349h57.12V199.636z"/>
<path d="M433.709,61.354c4.142,0,7.5-3.358,7.5-7.5v-1.658c0-4.142-3.358-7.5-7.5-7.5s-7.5,3.358-7.5,7.5v1.658
	C426.209,57.996,429.567,61.354,433.709,61.354z"/>
<path d="M433.709,80.112c4.142,0,7.5-3.358,7.5-7.5v-1.658c0-4.142-3.358-7.5-7.5-7.5s-7.5,3.358-7.5,7.5v1.658
	C426.209,76.754,429.567,80.112,433.709,80.112z"/>
<g>
</g>
<g>
</g>
<g>
</g>
<g>
</g>
<g>
</g>
<g>
</g>
<g>
</g>
<g>
</g>
<g>
</g>
<g>
</g>
<g>
</g>
<g>
</g>
<g>
</g>
<g>
</g>
<g>
</g>
</svg>
