<svg id="color" enable-background="new 0 0 24 24" height="512" viewBox="0 0 24 24" width="512" xmlns="http://www.w3.org/2000/svg"><path d="m20 8.76v2.05c-3.35-.08-2.5-.01-3.43-.01-1.53 0-3.05-2.82-3.05-2.82s-.27 1.78.76 3.22c-3.81 0-5.34-4.01-5.34-4.01 0 2.42-2.66 3.61-2.66 3.61l-2.28 1.02v-3.04c0-3.25 2.1-4.45 3.59-4.71.33-.79 1.33-1.99 4.39-2.07 2.37-.06 4.67.77 6.16 2.22 1.22 1.19 1.86 2.76 1.86 4.54z" fill="#607d8b"/><path d="m20 10.81v1.65c0 1.23-.24 2.44-.71 3.59-.18.41-.57 1.1-.61 1.18-1.5 2.49-3.34 4.77-6.68 4.77-3.43 0-5.33-2.45-6.74-4.85-.01-.02-.39-.72-.55-1.09-.47-1.14-.71-2.35-.71-3.59v-.65l2.28-1.02s2.66-1.19 2.66-3.61c0 0 1.53 4.01 5.34 4.01-1.03-1.44-.76-3.22-.76-3.22s1.52 2.82 3.05 2.82c.93 0 .08-.07 3.43.01z" fill="#ffcc80"/><g fill="#2196f3"><path d="m23 8c-.552 0-1-.448-1-1v-4c0-.551-.449-1-1-1h-4c-.552 0-1-.448-1-1s.448-1 1-1h4c1.654 0 3 1.346 3 3v4c0 .552-.448 1-1 1z"/><path d="m1 8c-.552 0-1-.448-1-1v-4c0-1.654 1.346-3 3-3h4c.552 0 1 .448 1 1s-.448 1-1 1h-4c-.551 0-1 .449-1 1v4c0 .552-.448 1-1 1z"/><path d="m21 24h-4c-.552 0-1-.448-1-1s.448-1 1-1h4c.551 0 1-.449 1-1v-4c0-.552.448-1 1-1s1 .448 1 1v4c0 1.654-1.346 3-3 3z"/><path d="m7 24h-4c-1.654 0-3-1.346-3-3v-4c0-.552.448-1 1-1s1 .448 1 1v4c0 .551.449 1 1 1h4c.552 0 1 .448 1 1s-.448 1-1 1z"/></g><path d="m12.001 18.5c-1.003 0-1.943-.402-2.65-1.131-.288-.298-.28-.772.018-1.061s.772-.28 1.061.017c.841.87 2.301.871 3.144 0 .289-.297.765-.305 1.061-.017.298.288.306.763.018 1.061-.71.729-1.65 1.131-2.652 1.131z" fill="#607d8b"/></svg>