<svg id="Capa_1" enable-background="new 0 0 511.987 511.987" height="512" viewBox="0 0 511.987 511.987" width="512" xmlns="http://www.w3.org/2000/svg"><g><g><path d="m500.491 236.085-42.692 82.09v64.291c0 1.093-.023 2.187-.046 3.27-1.6 63.565-54.596 113.821-118.185 113.821h-96.471c-6.758 0-13.448-.576-20.01-1.704-24.742-4.225-47.688-16.245-65.35-34.563l-136.041-141.061c-9.464-9.464-14.196-21.876-14.196-34.276s4.732-24.8 14.196-34.264c9.418-9.406 21.714-14.15 34.034-14.208 12.492-.058 24.996 4.675 34.517 14.208l45.432 45.432-51.65-198.502c-.967-3.684-1.416-7.391-1.416-11.041 0-19.366 12.999-37.05 32.617-42.162 23.326-6.091 47.136 7.887 53.215 31.201l41.333 159.622c1.727 6.712 11.605 5.457 11.605-1.474v-179.943c0-24.19 19.803-44.603 43.993-44.396 11.905.104 22.658 4.962 30.476 12.78 7.898 7.898 12.78 18.813 12.78 30.844v184.491c0 2.095 3.005 2.406 3.431.357l28.311-136.525c4.26-20.598 22.405-34.771 42.657-34.771 2.947 0 5.929.299 8.923.921 23.579 4.893 38.731 27.978 33.849 51.568l-30.729 148.131c-.817 3.926 4.594 5.849 6.436 2.291l35.991-69.184c9.038-17.397 30.476-24.155 47.873-15.117 17.397 9.05 24.156 30.488 15.117 47.873z" fill="#efc285"/><g fill="#eaae63"><path d="m493.531 194.037c-15.118-3.072-31.053 4.05-38.52 18.42l-29.066 55.875c-3.978 7.647-12.955 11.229-21.105 8.422l-7.16-2.466c1.392.334 2.991-.15 3.831-1.772l35.989-69.182c9.043-17.396 30.478-24.161 47.874-15.118 3.06 1.587 5.787 3.566 8.157 5.821z"/><path d="m391.95 70.526c6.259 1.3 11.931 3.877 16.786 7.421-.782-.046-1.565-.069-2.347-.069-20.249 0-38.393 14.175-42.662 34.769l-23.273 112.261c-2.66 12.832-16.033 20.365-28.386 15.989l28.303-136.523c4.268-20.595 22.413-34.77 42.662-34.77 2.945.001 5.925.301 8.917.922z"/><path d="m265.379 12.424c5.316.046 10.412 1.036 15.118 2.831-16.591 6.385-28.453 22.838-28.453 41.569v161.929c0 13.242-10.759 23.967-24.001 23.931-6.26-.017-11.45-.032-12.068-.036 2.784-.242 5.407-2.313 5.407-5.879v-179.946c0-24.196 19.801-44.606 43.997-44.399z"/><path d="m223.088 497.853c-24.742-4.225-47.688-16.245-65.35-34.563l-136.042-141.061c-9.464-9.464-14.196-21.876-14.196-34.276s4.732-24.8 14.196-34.264c9.418-9.406 21.714-14.15 34.034-14.208v.012c-1.163.967-2.291 1.992-3.385 3.086-9.453 9.452-14.196 21.864-14.196 34.264s4.744 24.8 14.196 34.275l156.213 156.202c8.232 8.244 13.333 19.043 14.53 30.533z"/><path d="m165.247 299.127h-29.569l-51.647-198.503c-.966-3.693-1.415-7.398-1.415-11.045 0-19.364 13.001-37.047 32.618-42.167 8.859-2.312 17.787-1.726 25.795 1.174-17.488 6.271-28.844 22.896-28.844 40.994 0 3.647.449 7.352 1.415 11.045z"/></g></g><g><path d="m488.827 181.554c-21.046-10.928-47.056-2.71-57.98 18.314l-22.489 43.229 17.276-83.263c.841-4.056-1.764-8.026-5.82-8.868-4.056-.841-8.026 1.764-8.868 5.82l-23.222 111.92c-1.117 5.42 1.858 10.694 7.074 12.54 5.213 1.843 10.836-.382 13.365-5.274l35.992-69.184c7.113-13.692 24.051-19.039 37.754-11.924 13.698 7.125 19.047 24.066 11.927 37.766l-42.69 82.09c-.556 1.069-.846 2.256-.846 3.46v64.29c0 1.021-.019 2.043-.047 3.081-.722 28.661-12.632 55.481-33.536 75.52-20.847 19.984-48.245 30.989-77.146 30.989h-96.471c-6.268 0-12.571-.539-18.749-1.603-23.493-4.007-44.66-15.201-61.213-32.375l-16.42-17.02c-2.875-2.98-7.624-3.067-10.605-.19-2.981 2.876-3.066 7.624-.19 10.605l16.418 17.018c18.789 19.492 42.818 32.199 69.476 36.746 7.004 1.207 14.165 1.819 21.284 1.819h96.47c32.789 0 63.873-12.487 87.526-35.161 23.781-22.795 37.33-53.327 38.151-85.954.032-1.158.053-2.317.053-3.475v-62.457l41.845-80.464c10.935-21.037 2.719-47.053-18.319-57.995z"/><path d="m55.766 246.98c11.019-.082 21.388 4.212 29.181 12.013l45.43 45.43c1.36 1.36 3.143 2.083 4.967 2.166.109.022.219.038.334.038h34.355c34.792 0 65.609 22.159 76.686 55.139 1.053 3.135 3.975 5.114 7.109 5.114.792 0 1.597-.126 2.389-.392 3.927-1.319 6.041-5.571 4.722-9.498-13.131-39.096-49.663-65.363-90.906-65.363h-28.553l-50.198-192.919c-.778-2.952-1.172-6.023-1.172-9.129 0-16.408 11.107-30.76 27.015-34.903 9.342-2.439 19.069-1.096 27.391 3.784 8.319 4.878 14.242 12.709 16.674 22.039l41.328 159.613c1.708 6.624 7.868 10.81 14.653 9.947 6.785-.86 11.709-6.454 11.709-13.299v-179.94c0-9.792 4.043-19.415 11.092-26.403 6.904-6.845 15.89-10.554 25.345-10.487 9.534.081 18.493 3.838 25.233 10.587 6.822 6.813 10.58 15.881 10.58 25.533v184.49c0 4.764 3.571 8.719 8.306 9.199 4.724.474 9.017-2.673 9.968-7.315l28.311-136.534c3.452-16.682 18.304-28.79 35.315-28.79 2.463 0 4.953.257 7.395.763 19.498 4.052 32.073 23.209 28.033 42.699l-1.44 6.92c-.844 4.055 1.76 8.027 5.815 8.871 4.051.845 8.026-1.76 8.871-5.815l1.441-6.925c5.719-27.59-12.075-54.702-39.671-60.437-3.445-.714-6.959-1.076-10.442-1.076-24.089 0-45.119 17.138-50.003 40.747l-16.896 81.486v-128.283c0-13.662-5.32-26.499-14.973-36.14-9.534-9.546-22.217-14.867-35.712-14.98-13.459-.139-26.266 5.151-36.033 14.833-9.871 9.786-15.532 23.292-15.532 37.056v167.333l-38.175-147.424c-3.446-13.219-11.83-24.301-23.605-31.206-11.778-6.907-25.547-8.81-38.763-5.359-22.509 5.861-38.23 26.183-38.23 49.417 0 4.395.561 8.752 1.662 12.929l44.703 171.799-25.919-25.918c-10.643-10.654-24.813-16.49-39.862-16.41-14.833.072-28.79 5.898-39.294 16.404-10.576 10.564-16.4 24.615-16.4 39.566 0 14.928 5.804 28.965 16.346 39.533l98.785 102.434c1.472 1.526 3.434 2.293 5.399 2.293 1.874 0 3.75-.698 5.205-2.102 2.982-2.875 3.068-7.623.192-10.604l-98.83-102.48c-.031-.033-.063-.065-.095-.097-7.739-7.741-12.002-18.032-12.002-28.977 0-10.94 4.262-21.223 12.003-28.957 7.695-7.694 17.91-11.961 28.763-12.013z"/></g></g></svg>