<svg id="Capa_1" enable-background="new 0 0 512 512" height="512" viewBox="0 0 512 512" width="512" xmlns="http://www.w3.org/2000/svg"><g><g><path d="m100.63 49.945v37.003c0 65.677 39.028 124.779 99.429 150.571l43.279 18.481-43.279 18.481c-60.401 25.792-99.429 84.894-99.429 150.571v37.003h155.37l9.903-221.462-9.903-190.648z" fill="#daf2fe"/><path d="m411.37 86.948v-37.003h-155.37v412.11h155.37v-37.003c0-65.677-39.028-124.779-99.429-150.571l-43.279-18.481 43.279-18.481c60.401-25.791 99.429-84.894 99.429-150.571z" fill="#c1e3fd"/></g><g fill="#7d89e5"><path d="m188.886 365.826c-37.25 15.906-66.814 41.89-88.256 76.259l155.37 16.746 15.028-60.832-15.028-60.831z"/><path d="m137.887 190.987c16.345 19.862 37.469 35.984 62.172 46.532l40.956 19.456v39.214h14.985l9.903-61.606-9.903-43.596z"/></g><g><path d="m72.738 0v69.915h183.262l27.224-34.957-27.224-34.958z" fill="#ff9"/><path d="m256 0h183.262v69.915h-183.262z" fill="#ffe14d"/></g><path d="m270.985 256.976 40.956-19.456c24.702-10.548 45.826-26.67 62.172-46.532h-118.113v105.202h14.985z" fill="#706bef"/><path d="m323.114 365.826-67.114-28.658v121.663c.023.037 155.37-16.746 155.37-16.746-21.443-34.369-51.006-60.353-88.256-76.259z" fill="#706bef"/><path d="m72.738 512h183.262l27.224-34.958-27.224-34.957h-183.262z" fill="#ff9"/><path d="m256 442.085h183.262v69.915h-183.262z" fill="#ffe14d"/></g></svg>