<svg id="Layer_1" enable-background="new 0 0 512 512" height="512" viewBox="0 0 512 512" width="512" xmlns="http://www.w3.org/2000/svg"><g><g><path d="m234.077 71.203c-53.549-53.548-140.367-53.548-193.916 0-53.549 53.548-53.549 140.367 0 193.916l21.923 21.923 193.916 193.916 101.098-219.602-101.098-168.23z" fill="#ff4d4d"/></g><path d="m471.839 71.204c-53.549-53.549-140.368-53.549-193.916 0l-21.923 21.922v387.832l193.916-193.916 21.923-21.923c53.548-53.548 53.548-140.367 0-193.915z" fill="#cc295f"/><g><path d="m174.106 249.533v52.753l21.213 21.213h52.753c2.672 0 5.315-.124 7.928-.352l21.93-105.607-21.93-57.476c-45.893 4.015-81.894 42.535-81.894 89.469z" fill="#2ee66b"/><path d="m263.928 159.712c-2.672 0-5.315.124-7.928.352v163.083c45.893-4.014 81.894-42.534 81.894-89.469v-73.965h-73.966z" fill="#24b383"/></g><g><path d="m255.294 263.524-21.213-21.213-59.975 59.975v21.213h21.213z" fill="#408080"/></g></g></svg>