<svg height="512" viewBox="0 0 256 256" width="512" xmlns="http://www.w3.org/2000/svg"><path d="m32.083 220.7a12.5 12.5 0 0 1 -12.5-12.5v-38.165a12.5 12.5 0 0 1 25 0v38.165a12.5 12.5 0 0 1 -12.5 12.5z" fill="#f8af23"/><path d="m167.815 163.218h-34.5a12.5 12.5 0 0 1 0-25h26.82l15.529-30.649a12.5 12.5 0 0 1 11.15-6.851h15.25a12.5 12.5 0 1 1 0 25h-7.57l-15.529 30.649a12.5 12.5 0 0 1 -11.15 6.851z" fill="#f8af23"/><path d="m202.065 100.718h-9.5a12.5 12.5 0 1 1 0 25h-7.57l-15.529 30.649a12.5 12.5 0 0 1 -11.15 6.851h9.5a12.5 12.5 0 0 0 11.15-6.851l15.529-30.649h7.57a12.5 12.5 0 1 0 0-25z" fill="#f8d323"/><path d="m155.819 131.035h-114.11a23.7 23.7 0 0 0 -23.7 23.7v15.3h23.333v69.577h85.333v-69.577h29.143z" fill="#63bce7"/><path d="m117.175 170.035h9.5v69.577h-9.5z" fill="#63e2e7"/><path d="m146.319 131.035h9.5v39h-9.5z" fill="#63e2e7"/><path d="m41.342 170.035h9.5v69.577h-9.5z" fill="#6377e7"/><path d="m32.394 140.323a23.7 23.7 0 0 1 18.815-9.289h-9.5a23.7 23.7 0 0 0 -23.7 23.7v15.3h9.5v-15.3a23.7 23.7 0 0 1 4.885-14.411z" fill="#6377e7"/><rect fill="#9e9e9e" height="25.182" rx="4.919" width="73.851" x="152.112" y="50.354"/><rect fill="#9e9e9e" height="25.182" rx="4.919" width="73.851" x="152.112" y="75.536"/><rect fill="#9e9e9e" height="25.182" rx="4.919" width="73.851" x="152.112" y="25.172"/><path d="m221.044 25.172h-9.5a4.919 4.919 0 0 1 4.919 4.919v15.344a4.919 4.919 0 0 1 -4.919 4.919h9.5a4.919 4.919 0 0 0 4.919-4.919v-15.345a4.919 4.919 0 0 0 -4.919-4.918z" fill="#cecece"/><path d="m221.044 50.354h-9.5a4.919 4.919 0 0 1 4.919 4.919v15.344a4.919 4.919 0 0 1 -4.919 4.919h9.5a4.919 4.919 0 0 0 4.919-4.919v-15.344a4.919 4.919 0 0 0 -4.919-4.919z" fill="#cecece"/><path d="m221.044 75.536h-9.5a4.919 4.919 0 0 1 4.919 4.919v15.345a4.919 4.919 0 0 1 -4.919 4.919h9.5a4.919 4.919 0 0 0 4.919-4.919v-15.345a4.919 4.919 0 0 0 -4.919-4.919z" fill="#cecece"/><path d="m32.094 220.7a12.5 12.5 0 0 1 -5.759-23.6l37.415-19.38v-7.685a12.5 12.5 0 0 1 25 0v15.288a12.5 12.5 0 0 1 -6.75 11.099l-44.168 22.878a12.449 12.449 0 0 1 -5.738 1.4z" fill="#f8af23"/><path d="m29.083 170.035h-9.5v38.165a12.5 12.5 0 0 0 12.5 12.5 12.375 12.375 0 0 0 4.725-.949 12.5 12.5 0 0 1 -7.725-11.551z" fill="#f87023"/><circle cx="115.009" cy="83.275" fill="#f8af23" r="8.375"/><circle cx="53.009" cy="83.275" fill="#f87023" r="8.375"/><path d="m73.342 98.7h21.333a0 0 0 0 1 0 0v37.417a10.667 10.667 0 0 1 -10.667 10.667 10.667 10.667 0 0 1 -10.667-10.667v-37.417a0 0 0 0 1 .001 0z" fill="#f8af23"/><path d="m73.342 98.7v37.417a10.664 10.664 0 0 0 7.75 10.253v-47.67z" fill="#f87023"/><rect fill="#f8af23" height="80.117" rx="31" width="62" x="53.009" y="40.144"/><path d="m62.509 89.261v-18.117a31.007 31.007 0 0 1 26.25-30.638 31.232 31.232 0 0 0 -4.75-.362 31 31 0 0 0 -31 31v18.117a31 31 0 0 0 31 31 31.232 31.232 0 0 0 4.75-.362 31.007 31.007 0 0 1 -26.25-30.638z" fill="#f87023"/><path d="m109.509 71.021 2.25 12.254h3.25v-21.24h-5.5z" fill="#9e9e9e"/><path d="m53.009 83.275h3.75l3.088-14.239a3.134 3.134 0 0 1 3.924-2.792l28.113 7.416c5.824 1.825 12.82-.753 17.874-4.174l7.144-4.835a11.056 11.056 0 0 0 3.405-14.636l-1.32-2.313a28.587 28.587 0 0 0 -24.828-14.417h-24.859a15.468 15.468 0 0 0 -12.55 6.426l-3.745 5.2-1.187 1.289a17.688 17.688 0 0 0 -4.143 16.439z" fill="#9e9e9e"/><path d="m61.318 46.2 1.191-1.287 3.745-5.2a15.468 15.468 0 0 1 12.546-6.428h-9.5a15.468 15.468 0 0 0 -12.55 6.427l-3.745 5.2-1.187 1.288a17.688 17.688 0 0 0 -4.143 16.439l5.334 20.64h3.75l2.624-12.1-2.207-8.542a17.688 17.688 0 0 1 4.142-16.437z" fill="#707070"/><circle cx="74.425" cy="86.761" fill="#3f3679" r="3.486"/><circle cx="97.078" cy="86.761" fill="#3f3679" r="3.486"/><path d="m73.342 126.135 10.667 20.65-9.334 8.85-9.833-24.6z" fill="#f46275"/><path d="m94.675 126.135-10.666 20.65 9.333 8.85 9.833-24.6z" fill="#f46275"/><rect fill="#f8af23" height="7.043" rx="1.43" width="7.043" x="210.875" y="34.241"/><path d="m160.157 34.241h39.168v7.043h-39.168z" fill="#f8af23"/><rect fill="#f8af23" height="7.043" rx="1.43" width="7.043" x="210.875" y="59.423"/><path d="m160.157 59.423h39.168v7.043h-39.168z" fill="#f8af23"/><rect fill="#f8af23" height="7.043" rx="1.43" width="7.043" x="210.875" y="84.606"/><path d="m160.157 84.606h39.168v7.043h-39.168z" fill="#f8af23"/><circle cx="189.037" cy="25.172" fill="#f46275" r="19.756"/><path d="m192.572 25.172 7.3-7.3a2.5 2.5 0 1 0 -3.535-3.536l-7.3 7.3-7.3-7.3a2.5 2.5 0 0 0 -3.535 3.536l7.3 7.3-7.3 7.3a2.5 2.5 0 1 0 3.539 3.528l7.3-7.3 7.3 7.3a2.5 2.5 0 1 0 3.535-3.536z" fill="#63bce7"/><g fill="#3f3679"><path d="m27.323 249.084h-18a1.5 1.5 0 1 0 0 3h18a1.5 1.5 0 1 0 0-3z"/><path d="m246.68 249.084h-18a1.5 1.5 0 0 0 0 3h18a1.5 1.5 0 0 0 0-3z"/><path d="m218.479 249.084h-180.958a1.5 1.5 0 0 0 0 3h180.958a1.5 1.5 0 0 0 0-3z"/><path d="m9.32 241.111h237.36a1.5 1.5 0 0 0 0-3h-118.5v-66.576h27.644a1.5 1.5 0 0 0 1.5-1.5v-5.316h10.5a13.933 13.933 0 0 0 12.488-7.673l15.113-29.827h6.648a13.985 13.985 0 0 0 8.632-25h10.348a6.426 6.426 0 0 0 6.419-6.419v-15.345a6.405 6.405 0 0 0 -2.3-4.919 6.406 6.406 0 0 0 2.3-4.919v-15.345a6.405 6.405 0 0 0 -2.3-4.919 6.406 6.406 0 0 0 2.3-4.919v-15.344a6.426 6.426 0 0 0 -6.419-6.419h-10.836a21.231 21.231 0 0 0 -42.36 0h-10.827a6.426 6.426 0 0 0 -6.419 6.419v15.345a6.406 6.406 0 0 0 2.3 4.919 6.405 6.405 0 0 0 -2.3 4.919v15.344a6.406 6.406 0 0 0 2.3 4.919 6.405 6.405 0 0 0 -2.3 4.919v15.345a6.426 6.426 0 0 0 6.419 6.419h21.118a14.011 14.011 0 0 0 -3.822 4.673l-15.113 29.827h-1.895v-5.684a1.5 1.5 0 0 0 -1.5-1.5h-52.242l-7.4-4.266v-5.879a32.576 32.576 0 0 0 20.1-26.332 9.864 9.864 0 0 0 .229-19.534v-6.8l1.233-.835a12.613 12.613 0 0 0 3.867-16.622l-1.32-2.312a30.148 30.148 0 0 0 -26.13-15.173h-24.855a17.008 17.008 0 0 0 -13.767 7.049l-3.691 5.125-1.128 1.219a19.108 19.108 0 0 0 -4.5 17.833l2.9 11.192a9.873 9.873 0 0 0 2.625 18.864 32.576 32.576 0 0 0 20.1 26.328v5.879l-7.4 4.266h-22.73a25.2 25.2 0 0 0 -25.2 25.2v15.3a1.5 1.5 0 0 0 1.5 1.5h.074v36.663a14 14 0 0 0 20.438 12.432l1.32-.684v18.167h-30.521a1.5 1.5 0 0 0 0 3zm179.717-234.195a18.256 18.256 0 1 1 -18.256 18.255 18.276 18.276 0 0 1 18.256-18.255zm-15.4 32.868h-11.981v-4.043h8.966a21.359 21.359 0 0 0 3.019 4.043zm-20.03 5.651v-15.345a3.423 3.423 0 0 1 3.419-3.419h10.827a21.08 21.08 0 0 0 1.342 6.07h-9.043a1.5 1.5 0 0 0 -1.5 1.5v7.043a1.5 1.5 0 0 0 1.5 1.5h16.998a21.227 21.227 0 0 0 33.067-16.113h10.827a3.423 3.423 0 0 1 3.419 3.419v15.345a3.423 3.423 0 0 1 -3.419 3.419h-64.014a3.423 3.423 0 0 1 -3.419-3.419zm0 25.182v-15.345a3.423 3.423 0 0 1 3.419-3.418h64.014a3.423 3.423 0 0 1 3.419 3.418v15.345a3.423 3.423 0 0 1 -3.419 3.419h-64.01a3.423 3.423 0 0 1 -3.419-3.419zm3.419 28.6a3.423 3.423 0 0 1 -3.419-3.419v-15.343a3.423 3.423 0 0 1 3.419-3.418h64.014a3.423 3.423 0 0 1 3.419 3.418v15.345a3.423 3.423 0 0 1 -3.419 3.419h-64.01zm3.1 40.5a1.5 1.5 0 0 0 1.338-.822l15.536-30.648a10.948 10.948 0 0 1 9.813-6.028h15.25a11 11 0 0 1 0 22h-7.57a1.5 1.5 0 0 0 -1.338.822l-15.528 30.649a10.948 10.948 0 0 1 -9.812 6.028h-10.5v-22zm-64.848-11.5 6.013 3.466-8.53 21.34-6.911-6.553zm26.6-44.943a6.922 6.922 0 0 1 -5.393 6.707c.005-.241.018-.479.018-.721v-12.687a6.915 6.915 0 0 1 5.381 6.702zm-8.375-12.131v10.632h-.5l-2-10.891v-.434l2.5-1.692zm-60.584-23.928 1.19-1.287a1.387 1.387 0 0 0 .116-.142l3.745-5.2a14 14 0 0 1 11.333-5.8h24.856a27.142 27.142 0 0 1 23.524 13.661l1.317 2.311a9.6 9.6 0 0 1 -2.943 12.65l-7.144 4.835c-5.807 3.929-12.007 5.418-16.65 3.966l-28.109-7.415a4.634 4.634 0 0 0 -5.793 4.015l-2.812 12.966h-1.378l-5.044-19.515a16.122 16.122 0 0 1 3.792-15.045zm-6.785 36.06a6.868 6.868 0 0 1 3.745-6.118l1.648 6.376a1.471 1.471 0 0 0 -.018.175v5.553c0 .243.013.482.018.723a6.863 6.863 0 0 1 -5.393-6.709zm8.375 5.986v-4.486h2.25a1.5 1.5 0 0 0 1.466-1.182l3.088-14.24a1.574 1.574 0 0 0 .03-.2 1.634 1.634 0 0 1 2.046-1.456l28.047 7.4c4.785 1.5 10.9.418 16.766-2.882l2.082 11.337a1.5 1.5 0 0 0 1.476 1.229h1.75v4.486a29.5 29.5 0 1 1 -59 0zm29.5 32.5a32.388 32.388 0 0 0 9.166-1.325v5.333l-9.166 17.746-9.167-17.745v-5.333a32.389 32.389 0 0 0 9.167 1.324zm-11.279 6.458 9.429 18.253-6.912 6.553-8.53-21.34zm-53.221 26.516a22.2 22.2 0 0 1 22.2-22.2h22.117l9.456 23.657a1.473 1.473 0 0 0 .08.146 14.022 14.022 0 0 0 -11.113 13.7v6.772l-19.407 10.049v-16.824a1.5 1.5 0 0 0 -1.5-1.5h-21.833zm17.632 63.229a10.871 10.871 0 0 1 -5.058 1.232 11.012 11.012 0 0 1 -11-11v-36.661h18.759v16.878l-5.8 3a1.5 1.5 0 1 0 1.379 2.664l29.016-15.027a1.5 1.5 0 0 0 .811-1.332v-7.685a11 11 0 0 1 22 0v15.288a10.962 10.962 0 0 1 -5.94 9.768zm5.7.426 39.847-20.637a13.951 13.951 0 0 0 7.562-12.432v-15.286a14.011 14.011 0 0 0 -13.826-13.991l7.585-7.192 8.3 7.871a1.5 1.5 0 0 0 2.425-.532l9.456-23.657h50.128v36h-27.643a1.5 1.5 0 0 0 -1.5 1.5v68.077h-82.333z"/><path d="m86.193 102.718a1.5 1.5 0 0 0 1.5-1.5v-8.125a1.5 1.5 0 1 0 -3 0v8.125a1.5 1.5 0 0 0 1.5 1.5z"/><path d="m81.645 77.175a1.5 1.5 0 0 0 -1.83-1.075l-11.534 3a1.5 1.5 0 0 0 .376 2.952 1.482 1.482 0 0 0 .378-.052l11.534-3a1.5 1.5 0 0 0 1.076-1.825z"/><path d="m90.934 79 11.534 3a1.482 1.482 0 0 0 .378.049 1.5 1.5 0 0 0 .376-2.952l-11.534-3a1.5 1.5 0 1 0 -.754 2.9z"/><path d="m91.956 111.408a1.5 1.5 0 0 0 2.688-1.335 9.425 9.425 0 0 0 -16.9 0 1.5 1.5 0 1 0 2.688 1.334 6.424 6.424 0 0 1 11.524 0z"/><path d="m216.488 32.741h-4.188a2.932 2.932 0 0 0 -2.929 2.93v4.184a2.932 2.932 0 0 0 2.929 2.929h4.185a2.933 2.933 0 0 0 2.93-2.929v-4.184a2.933 2.933 0 0 0 -2.927-2.93zm-.07 7.043h-4.043v-4.044l4.043-.069z"/><path d="m216.488 57.923h-4.188a2.932 2.932 0 0 0 -2.929 2.93v4.184a2.932 2.932 0 0 0 2.929 2.929h4.185a2.933 2.933 0 0 0 2.93-2.929v-4.184a2.933 2.933 0 0 0 -2.927-2.93zm-.07 7.043h-4.043v-4.044l4.043-.069z"/><path d="m199.325 57.923h-39.169a1.5 1.5 0 0 0 -1.5 1.5v7.043a1.5 1.5 0 0 0 1.5 1.5h39.169a1.5 1.5 0 0 0 1.5-1.5v-7.043a1.5 1.5 0 0 0 -1.5-1.5zm-1.5 7.043h-36.169v-4.043h36.169z"/><path d="m212.3 93.149h4.185a2.933 2.933 0 0 0 2.93-2.93v-4.184a2.933 2.933 0 0 0 -2.93-2.93h-4.185a2.932 2.932 0 0 0 -2.929 2.93v4.184a2.932 2.932 0 0 0 2.929 2.93zm.071-7.044 4.043-.069v4.114h-4.043z"/><path d="m199.325 83.105h-39.169a1.5 1.5 0 0 0 -1.5 1.5v7.043a1.5 1.5 0 0 0 1.5 1.5h39.169a1.5 1.5 0 0 0 1.5-1.5v-7.043a1.5 1.5 0 0 0 -1.5-1.5zm-1.5 7.043h-36.169v-4.043h36.169z"/><path d="m175.974 34.235a4 4 0 0 0 6.828 2.828l6.235-6.235 6.234 6.234a4 4 0 1 0 5.657-5.656l-6.235-6.235 6.235-6.234a4 4 0 0 0 0-5.657 4.1 4.1 0 0 0 -5.656 0l-6.235 6.235-6.237-6.235a4.1 4.1 0 0 0 -5.656 0 4 4 0 0 0 0 5.657l6.235 6.235-6.235 6.235a3.973 3.973 0 0 0 -1.17 2.828zm3.293-.708 7.3-7.3a1.5 1.5 0 0 0 0-2.121l-7.3-7.3a1 1 0 0 1 0-1.414 1.024 1.024 0 0 1 1.414 0l7.3 7.3a1.5 1.5 0 0 0 2.121 0l7.3-7.3a1.024 1.024 0 0 1 1.414 0 1 1 0 0 1 0 1.415l-7.3 7.3a1.5 1.5 0 0 0 0 2.121l7.3 7.3a1 1 0 0 1 0 1.415 1.022 1.022 0 0 1 -1.414 0l-7.3-7.3a1.5 1.5 0 0 0 -2.121 0l-7.3 7.3a1.022 1.022 0 0 1 -1.413 0 1 1 0 0 1 0-1.414z"/></g></svg>