<svg id="color" enable-background="new 0 0 24 24" height="512" viewBox="0 0 24 24" width="512" xmlns="http://www.w3.org/2000/svg"><circle cx="12" cy="12" fill="#ffd54f" r="12"/><path d="m12 0c-6.627 0-12 5.373-12 12 0 6.627 5.373 12 12 12v-6-1.5z" fill="#deb945"/><path d="m7.5 11c-1.379 0-2.5-1.122-2.5-2.5 0-.414.336-.75.75-.75s.75.336.75.75c0 .551.448 1 1 1s1-.449 1-1c0-.414.336-.75.75-.75s.75.336.75.75c0 1.378-1.121 2.5-2.5 2.5z" fill="#6d4c41"/><path d="m16.5 11c-1.379 0-2.5-1.122-2.5-2.5 0-.414.336-.75.75-.75s.75.336.75.75c0 .551.448 1 1 1s1-.449 1-1c0-.414.336-.75.75-.75s.75.336.75.75c0 1.378-1.121 2.5-2.5 2.5z" fill="#6d4c41"/><path d="m5.75 7.75c-.414 0-.75.336-.75.75 0 1.378 1.121 2.5 2.5 2.5v-1.5c-.552 0-1-.449-1-1 0-.414-.336-.75-.75-.75z" fill="#5f4239"/><path d="m14.75 7.75c-.414 0-.75.336-.75.75 0 1.378 1.121 2.5 2.5 2.5v-1.5c-.552 0-1-.449-1-1 0-.414-.336-.75-.75-.75z" fill="#5f4239"/><path d="m17.054 19.593c-.192 0-.384-.073-.53-.22-2.494-2.494-6.553-2.494-9.047 0-.293.293-.768.293-1.06 0-.293-.293-.293-.768 0-1.061 3.078-3.079 8.09-3.079 11.168 0 .293.293.293.768 0 1.061-.147.147-.339.22-.531.22z" fill="#6d4c41"/><path d="m12 16.004c-2.022 0-4.045.77-5.584 2.309-.293.293-.293.768 0 1.061.146.146.338.22.53.22s.384-.073.53-.22c1.247-1.247 2.885-1.871 4.523-1.871v-1.499z" fill="#5f4239"/><path d="m22.046 1.324c-.281-.405-.955-.405-1.234 0-.461.668-1.966 2.937-1.966 4.093 0 1.424 1.159 2.583 2.583 2.583 1.425 0 2.584-1.159 2.584-2.584 0-1.156-1.506-3.424-1.967-4.092z" fill="#00bcd4"/><path d="m21.428 1.02c-.239 0-.477.101-.616.304-.461.668-1.966 2.937-1.966 4.093 0 1.424 1.159 2.583 2.583 2.583h.001v-6.98c-.001 0-.001 0-.002 0z" fill="#00a4b9"/></svg>