<svg id="Icons" enable-background="new 0 0 512 512" height="512" viewBox="0 0 512 512" width="512" xmlns="http://www.w3.org/2000/svg" xmlns:xlink="http://www.w3.org/1999/xlink"><linearGradient id="lg1"><stop offset="0" stop-color="#22b7eb"/><stop offset="1" stop-color="#1e74bb"/></linearGradient><linearGradient id="SVGID_1_" gradientUnits="userSpaceOnUse" x1="256" x2="256" xlink:href="#lg1" y1="512" y2="0"/><linearGradient id="SVGID_2_" gradientUnits="userSpaceOnUse" x1="246" x2="246" xlink:href="#lg1" y1="512" y2="246"/><linearGradient id="SVGID_3_" gradientUnits="userSpaceOnUse" x1="246" x2="246" y1="335.585" y2="156.415"><stop offset="0" stop-color="#fff"/><stop offset=".2013" stop-color="#f3f9f9"/><stop offset=".6958" stop-color="#dbecee"/><stop offset="1" stop-color="#d2e7ea"/></linearGradient><g><circle cx="256" cy="256" fill="url(#SVGID_1_)" r="256"/><path d="m390.048 246h-288.096l17.399 226.501c39.542 25.01 86.401 39.499 136.649 39.499 41.652 0 80.977-9.956 115.736-27.605z" fill="url(#SVGID_2_)"/><path d="m385.122 232.856-60.675-69.585c-7.259-8.325-19.893-9.189-28.218-1.93s-9.189 19.893-1.93 28.218l31.775 36.441h-204.122c-11.046 0-20 8.954-20 20s8.954 20 20 20h204.122l-31.775 36.441c-7.259 8.325-6.395 20.959 1.93 28.218 3.79 3.305 8.473 4.926 13.136 4.926 5.579 0 11.128-2.321 15.083-6.856l60.675-69.585c6.567-7.532 6.567-18.756-.001-26.288z" fill="url(#SVGID_3_)"/></g></svg>