<svg id="Capa_1" enable-background="new 0 0 512 512" height="512" viewBox="0 0 512 512" width="512" xmlns="http://www.w3.org/2000/svg"><g><path d="m385.308 206.243-49.532-18.249 18.389 49.914c1.947 5.285 9.344 5.494 11.586.328l4.786-11.026c1.065-2.454 3.043-4.397 5.515-5.418l9.482-3.919c5.254-2.172 5.108-9.664-.226-11.63z" fill="#80b4fb"/><g><path d="m432.913 429.709v71.989c0 5.687-4.615 10.302-10.302 10.302h-129.143l-37.468-17.297-37.468 17.297h-129.143c-5.687 0-10.302-4.615-10.302-10.302v-71.989c0-47.079 31.616-88.307 77.099-100.505l63.387-17.008h72.854l63.387 17.008c45.483 12.198 77.099 53.426 77.099 100.505z" fill="#4073c8"/><path d="m364.175 331.825c4.766 16.041 7.338 33.026 7.338 50.614 0 51.121-21.628 97.183-56.222 129.561h107.319c5.69 0 10.302-4.612 10.302-10.302v-71.985c-.001-44.144-27.791-83.132-68.737-97.888z" fill="#30579d"/><path d="m293.463 512-19.772-97.821h-35.382l-19.772 97.821z" fill="#f6e266"/><path d="m278.319 437.073-4.628-22.894h-35.382l-4.628 22.894z" fill="#f1d333"/><g><path d="m273.691 414.179 17.701-32.824-35.392-32.737-35.392 32.737 17.701 32.824z" fill="#f6e266"/></g><path d="m306.118 387.122c11.977 0 21.687-9.709 21.687-21.687v-43.747l-35.382-9.493h-36.423v36.423l35.392 32.738c4.008 3.707 9.267 5.766 14.726 5.766z" fill="#5490f9"/><path d="m205.882 387.122c-11.977 0-21.687-9.709-21.687-21.687v-43.747l35.382-9.493h36.423v36.423l-35.392 32.738c-4.008 3.707-9.267 5.766-14.726 5.766z" fill="#5490f9"/><path d="m292.423 312.195v-44.748h-72.846v44.748c0 20.116 16.307 36.423 36.423 36.423 20.116 0 36.423-16.307 36.423-36.423z" fill="#f1d0a5"/><path d="m219.577 292.083c11.342 4.252 23.614 6.583 36.423 6.583 12.808 0 25.081-2.332 36.423-6.583v-24.636h-72.846z" fill="#ffb983"/><path d="m172.748 96.78v96.78c0 45.979 37.273 83.252 83.252 83.252s83.252-37.273 83.252-83.252v-96.78z" fill="#f1d0a5"/><path d="m339.252 193.561v-96.781h-19.772v118.54c0 16.246-4.67 31.394-12.717 44.206 19.751-15.222 32.489-39.1 32.489-65.965z" fill="#f1b986"/><g><path d="m372.553 160.155v-43.603c0-64.37-52.183-116.552-116.553-116.552-64.37 0-116.553 52.182-116.553 116.553v43.603h233.106z" fill="#e49542"/></g><path d="m302.289 9.562c22.743 21.27 36.963 51.541 36.963 85.137v65.456h33.301v-43.603c0-47.92-28.924-89.08-70.264-106.99z" fill="#e28424"/><path d="m355.902 191.385h-16.65v-49.951h16.65c9.196 0 16.65 7.455 16.65 16.65v16.65c.001 9.196-7.454 16.651-16.65 16.651z" fill="#f1d0a5"/><path d="m172.748 141.434h166.504v49.951h-166.504z" fill="#9dc6fb" transform="matrix(-1 0 0 -1 512 332.819)"/><path d="m319.48 141.434h19.772v49.951h-19.772z" fill="#80b4fb"/><path d="m156.098 191.385h16.65v-49.951h-16.65c-9.196 0-16.65 7.455-16.65 16.65v16.65c-.001 9.196 7.454 16.651 16.65 16.651z" fill="#f1d0a5"/></g></g></svg>