<svg viewBox="0 0 512 512" xmlns="http://www.w3.org/2000/svg"><path d="m453.5 145.835938h-395c-26.785156 0-48.5 21.714843-48.5 48.5v259c0 26.785156 21.714844 48.5 48.5 48.5h395c26.785156 0 48.5-21.714844 48.5-48.5v-259c0-26.785157-21.714844-48.5-48.5-48.5zm0 0" fill="#72d8ff"/><path d="m217.957031 449.769531h142.042969c5.523438 0 10-4.476562 10-10v-231.933593c0-5.523438-4.476562-10-10-10h-300c-5.523438 0-10 4.476562-10 10v231.933593c0 5.523438 4.476562 10 10 10zm0 0" fill="#fff"/><path d="m460 221.835938c0 13.253906-10.746094 24-24 24s-24-10.746094-24-24c0-13.253907 10.746094-24 24-24s24 10.746093 24 24zm0 0" fill="#ffc66c"/><path d="m460 312.816406c0 13.257813-10.746094 24-24 24s-24-10.742187-24-24c0-13.253906 10.746094-24 24-24s24 10.746094 24 24zm0 0" fill="#ffc66c"/><path d="m187.464844 273.449219 67.796875 39.140625c8.632812 4.984375 8.632812 17.445312 0 22.429687l-67.796875 39.140625c-8.632813 4.984375-19.421875-1.246094-19.421875-11.214844v-78.28125c0-9.96875 10.789062-16.199218 19.421875-11.214843zm0 0" fill="#ff5d5d"/><path d="m202.929688 442.695312c-1.859376 1.859376-2.929688 4.441407-2.929688 7.070313 0 2.640625 1.070312 5.210937 2.929688 7.070313 1.859374 1.871093 4.441406 2.929687 7.070312 2.929687s5.210938-1.058594 7.070312-2.929687c1.859376-1.859376 2.929688-4.429688 2.929688-7.070313 0-2.628906-1.070312-5.210937-2.929688-7.070313-1.859374-1.859374-4.441406-2.929687-7.070312-2.929687s-5.210938 1.070313-7.070312 2.929687zm0 0"/><path d="m252.332031 459.769531h107.667969c11.027344 0 20-8.972656 20-20v-231.933593c0-11.027344-8.972656-20-20-20h-300c-11.027344 0-20 8.972656-20 20v231.933593c0 11.027344 8.972656 20 20 20h108.042969c5.523437 0 10-4.476562 10-10 0-5.523437-4.476563-10-10-10h-108.042969v-231.933593h300v231.933593h-107.667969c-5.523437 0-10 4.476563-10 10 0 5.523438 4.480469 10 10 10zm0 0"/><path d="m453.5 135.835938h-172.695312l118.765624-118.765626c3.902344-3.902343 3.902344-10.234374 0-14.140624-3.90625-3.90625-10.238281-3.90625-14.144531 0l-129.410156 129.410156-70.695313-70.695313c-3.90625-3.90625-10.238281-3.90625-14.144531 0-3.902343 3.90625-3.902343 10.238281 0 14.144531l60.050781 60.046876h-99.226562c-5.523438 0-10 4.476562-10 10 0 5.523437 4.476562 10 10 10h321.5c21.230469 0 38.5 17.269531 38.5 38.5v259c0 21.230468-17.269531 38.5-38.5 38.5h-395c-21.230469 0-38.5-17.269532-38.5-38.5v-259c0-21.230469 17.269531-38.5 38.5-38.5 5.523438 0 10-4.476563 10-10 0-5.523438-4.476562-10-10-10-32.257812 0-58.5 26.242187-58.5 58.5v259c0 32.257812 26.242188 58.5 58.5 58.5h395c32.257812 0 58.5-26.242188 58.5-58.5v-259c0-32.257813-26.242188-58.5-58.5-58.5zm0 0"/><path d="m96.5 155.835938c2.628906 0 5.210938-1.070313 7.070312-2.929688 1.859376-1.859375 2.929688-4.441406 2.929688-7.070312 0-2.628907-1.070312-5.210938-2.929688-7.070313-1.859374-1.859375-4.441406-2.929687-7.070312-2.929687s-5.210938 1.070312-7.070312 2.929687c-1.859376 1.859375-2.929688 4.441406-2.929688 7.070313 0 2.640624 1.070312 5.210937 2.929688 7.070312 1.859374 1.859375 4.441406 2.929688 7.070312 2.929688zm0 0"/><path d="m436 255.835938c18.746094 0 34-15.25 34-34 0-18.746094-15.253906-34-34-34s-34 15.253906-34 34c0 18.75 15.253906 34 34 34zm0-48c7.71875 0 14 6.28125 14 14s-6.28125 14-14 14-14-6.28125-14-14 6.28125-14 14-14zm0 0"/><path d="m436 346.816406c18.746094 0 34-15.25 34-34 0-18.746094-15.253906-34-34-34s-34 15.253906-34 34c0 18.75 15.253906 34 34 34zm0-48c7.71875 0 14 6.28125 14 14 0 7.722656-6.28125 14-14 14s-14-6.277344-14-14c0-7.71875 6.28125-14 14-14zm0 0"/><path d="m412 459.769531h51c5.523438 0 10-4.476562 10-10 0-5.523437-4.476562-10-10-10h-51c-5.523438 0-10 4.476563-10 10 0 5.523438 4.476562 10 10 10zm0 0"/><path d="m412 419.75h51c5.523438 0 10-4.476562 10-10s-4.476562-10-10-10h-51c-5.523438 0-10 4.476562-10 10s4.476562 10 10 10zm0 0"/><path d="m412 379.726562h51c5.523438 0 10-4.476562 10-10 0-5.519531-4.476562-10-10-10h-51c-5.523438 0-10 4.480469-10 10 0 5.523438 4.476562 10 10 10zm0 0"/><path d="m271.734375 323.804688c0-8.296876-4.289063-15.726563-11.472656-19.875l-67.796875-39.140626c-7.183594-4.148437-15.761719-4.148437-22.949219 0-7.183594 4.148438-11.472656 11.578126-11.472656 19.875v78.28125c0 8.296876 4.289062 15.726563 11.472656 19.875 3.59375 2.074219 7.535156 3.109376 11.476563 3.109376 3.9375 0 7.878906-1.035157 11.472656-3.109376l67.796875-39.140624c7.183593-4.152344 11.472656-11.582032 11.472656-19.875zm-21.472656 2.550781-67.796875 39.144531c-1.28125.738281-2.398438.316406-2.949219 0-.550781-.320312-1.472656-1.074219-1.472656-2.554688v-78.28125c0-1.484374.921875-2.238281 1.472656-2.554687.328125-.1875.847656-.414063 1.484375-.414063.441406 0 .941406.109376 1.464844.414063l67.796875 39.140625c1.28125.738281 1.472656 1.917969 1.472656 2.554688 0 .632812-.191406 1.8125-1.472656 2.550781zm0 0"/></svg>