<?xml version="1.0" encoding="iso-8859-1"?>
<!-- Generator: Adobe Illustrator 19.0.0, SVG Export Plug-In . SVG Version: 6.00 Build 0)  -->
<svg version="1.1" id="Capa_1" xmlns="http://www.w3.org/2000/svg" xmlns:xlink="http://www.w3.org/1999/xlink" x="0px" y="0px"
	 viewBox="0 0 456.304 456.304" style="enable-background:new 0 0 456.304 456.304;" xml:space="preserve">
<path style="fill:#00EFD1;" d="M443.471,287.96c12.141,46.305-15.555,93.685-61.86,105.826s-93.685-15.555-105.826-61.86
	c-1.881-7.174-2.833-14.56-2.834-21.976c0-0.75,0.01-1.49,0.03-2.24c1.243-47.857,41.047-85.645,88.904-84.402
	c32.351,0.84,61.539,19.631,75.696,48.732L443.471,287.96z M416.901,309.95c0-32.309-26.191-58.5-58.5-58.5s-58.5,26.191-58.5,58.5
	s26.191,58.5,58.5,58.5c0.003,0,0.007,0,0.01,0C390.716,368.444,416.901,342.255,416.901,309.95z"/>
<path style="fill:#00ACEA;" d="M386.891,135.15l50.69,136.89c-20.943-43.049-72.819-60.969-115.868-40.026
	c-29.1,14.157-47.891,43.346-48.732,75.696h-0.03l0.29-45.44l0.22-35.21l0.46-72.42l0.01-1.96c0-11.072,3.251-21.9,9.35-31.14
	c2.247-3.411,4.845-6.579,7.75-9.45c22.699-22.542,59.374-22.416,81.916,0.283C379.306,118.775,384.081,126.575,386.891,135.15
	L386.891,135.15z"/>
<path style="fill:#FEDB41;" d="M358.411,251.45c32.309,0,58.5,26.191,58.5,58.5s-26.191,58.5-58.5,58.5s-58.5-26.191-58.5-58.5l0,0
	C299.911,277.641,326.103,251.45,358.411,251.45z"/>
<path style="fill:#00CEB4;" d="M359.621,86.46l2.44,17.31c-22.755-13.97-52.119-10.531-71.03,8.32
	c-2.905,2.871-5.503,6.039-7.75,9.45l-0.1-0.07l-0.49-22.84c0.247-10.361,4.502-20.222,11.87-27.51
	c15.429-15.327,40.362-15.243,55.689,0.186C354.491,75.575,357.696,80.759,359.621,86.46z"/>
<path style="fill:#00EFD1;" d="M273.921,154.64l-0.46,72.42h-0.51h-90.07h-0.01l-0.47-72.43h0.48h90.07L273.921,154.64z"/>
<path style="fill:#00CEB4;" d="M273.461,227.06l-0.22,35.21h-0.29h-89.86l-0.22-35.21h0.01h90.07H273.461z"/>
<path style="fill:#00ACEA;" d="M183.091,262.27l0.28,43.5h-0.1c-2.317-47.818-42.959-84.704-90.777-82.388
	c-31.626,1.532-59.9,20.186-73.753,48.658l50.69-136.89c9.92-30.389,42.597-46.983,72.986-37.063
	c8.616,2.812,16.451,7.609,22.874,14.003c2.941,2.905,5.565,6.112,7.83,9.57c6.049,9.215,9.271,19.997,9.27,31.02l0.01,1.95
	l0.47,72.43L183.091,262.27z"/>
<path style="fill:#00EFD1;" d="M183.271,305.77c0.07,1.38,0.1,2.78,0.1,4.18c-0.034,47.867-38.865,86.642-86.731,86.609
	s-86.642-38.865-86.609-86.731c0.005-7.379,0.953-14.728,2.82-21.867l5.89-15.92c20.945-43.049,72.823-60.968,115.872-40.023
	C163.086,245.87,181.739,274.144,183.271,305.77z M155.191,309.95c0-32.309-26.191-58.5-58.5-58.5s-58.5,26.191-58.5,58.5
	s26.191,58.5,58.5,58.5c0.003,0,0.007,0,0.01,0C129.006,368.444,155.191,342.255,155.191,309.95z"/>
<path style="fill:#00CEB4;" d="M173.631,99.12l-0.49,22.53l-0.02,0.01c-10.755-16.424-29.038-26.353-48.67-26.43
	c-10.623,0.009-21.038,2.947-30.1,8.49l-0.09-0.16l2.44-16.61c6.957-20.605,29.301-31.669,49.906-24.711
	c5.701,1.925,10.885,5.131,15.154,9.371C169.13,78.898,173.384,88.759,173.631,99.12z"/>
<path style="fill:#FEDB41;" d="M96.701,251.45c32.309,0,58.5,26.191,58.5,58.5s-26.191,58.5-58.5,58.5s-58.5-26.191-58.5-58.5l0,0
	C38.201,277.641,64.393,251.45,96.701,251.45z"/>
<g>
	<path style="fill:#083863;" d="M453.235,285.526l-0.24-0.646c-1.54-5.762-3.615-11.368-6.2-16.743L396.333,131.85
		c-4.53-13.662-13.281-25.533-24.993-33.9l-1.817-12.888c-0.084-0.599-0.223-1.189-0.414-1.763
		c-8.702-25.845-36.708-39.742-62.553-31.04c-7.161,2.411-13.674,6.434-19.036,11.758c-9.222,9.097-14.54,21.427-14.826,34.378
		v0.447l0.432,19.879c-4.624,7.784-7.587,16.442-8.7,25.427h-72.533c-1.112-8.983-4.071-17.638-8.691-25.422l0.427-19.51
		c0-0.15,0-0.241,0-0.391c-0.287-12.942-5.605-25.263-14.826-34.348c-19.366-19.209-50.638-19.082-69.847,0.285
		c-5.316,5.359-9.333,11.866-11.742,19.02c-0.185,0.557-0.321,1.129-0.406,1.709l-1.83,12.461
		c-11.714,8.364-20.465,20.236-24.989,33.9L9.512,268.167c-2.579,5.366-4.65,10.962-6.186,16.714l-0.239,0.645
		c-0.314,0.854-0.511,1.746-0.584,2.653C-9.517,340.2,22.91,392.117,74.931,404.137c52.021,12.021,103.938-20.406,115.959-72.427
		c1.649-7.136,2.482-14.436,2.482-21.76c0-1.091-0.023-2.135-0.056-3.149c0.038-0.384,0.057-0.769,0.056-1.155l-0.21-33.496h70.018
		l-0.018,35.5v0.124c0,0.153-0.089,0.3-0.082,0.454c-0.011,0.574-0.075,1.148-0.075,1.726c0.013,53.378,43.295,96.639,96.673,96.627
		s96.639-43.295,96.627-96.673c-0.002-7.313-0.833-14.601-2.479-21.726C453.75,287.273,453.552,286.38,453.235,285.526z
		 M377.513,138.626l33.01,89.143c-37.775-23.397-86.635-18.028-118.428,13.013c-3.145,3.071-6.078,6.351-8.782,9.817l0.608-95.9
		l0.01-2.012c0.003-9.117,2.68-18.033,7.7-25.644c1.865-2.827,4.019-5.453,6.427-7.835c18.769-18.662,49.114-18.576,67.776,0.194
		c5.267,5.297,9.222,11.751,11.551,18.848c0.041,0.128,0.083,0.251,0.128,0.373V138.626z M192.466,164.15h71.389l-0.331,53h-70.722
		L192.466,164.15z M322.131,69.68c11.836-0.069,22.558,6.971,27.2,17.859c-19.428-5.213-40.168-1.501-56.581,10.128
		c0.458-7.351,3.611-14.274,8.855-19.446C307.043,72.762,314.427,69.69,322.131,69.68L322.131,69.68z M134.191,70.17
		c7.706,0.009,15.091,3.082,20.529,8.541c5.12,5.047,8.252,11.768,8.824,18.934c-16.342-11.565-36.971-15.288-56.325-10.165
		C111.998,76.886,122.57,70.102,134.191,70.17z M78.809,138.623c0.045-0.123,0.088-0.246,0.128-0.37
		c8.207-25.139,35.24-38.865,60.379-30.658c7.141,2.331,13.633,6.31,18.952,11.614c2.434,2.405,4.607,5.06,6.482,7.922
		c4.989,7.606,7.645,16.504,7.641,25.6l0.626,97.784c-30.385-38.938-85.218-48.744-127.215-22.751L78.809,138.623z M96.701,386.623
		c-42.363-0.019-76.689-34.377-76.67-76.74c0.003-6.406,0.808-12.786,2.397-18.991l5.5-14.865
		c18.741-37.976,64.72-53.568,102.696-34.827c24.988,12.332,41.319,37.249,42.656,65.082c0.058,1.135,0.087,2.37,0.087,3.671
		c-0.05,42.321-34.345,76.617-76.666,76.667V386.623z M193.028,252.15l-0.1-15h70.466l-0.1,15H193.028z M359.621,386.62
		c-42.306-0.055-76.574-34.364-76.578-76.67c0-0.661,0.118-1.313,0.118-1.973v-0.013c0-20.057,8.618-38.835,23-52.876
		c30.268-29.565,78.773-28.995,108.338,1.273c5.652,5.787,10.352,12.432,13.926,19.689l5.481,14.842
		c10.496,41.053-14.275,82.843-55.329,93.339c-6.194,1.584-12.562,2.387-18.956,2.391V386.62z"/>
	<path style="fill:#083863;" d="M96.701,241.45c-37.832-0.006-68.504,30.658-68.51,68.49s30.658,68.504,68.49,68.51
		s68.504-30.659,68.51-68.49c0-0.003,0-0.007,0-0.01C165.148,272.14,134.511,241.498,96.701,241.45z M96.701,358.45
		c-26.786,0.006-48.504-21.704-48.51-48.49c-0.006-26.786,21.704-48.504,48.49-48.51s48.504,21.704,48.51,48.49
		c0,0.003,0,0.007,0,0.01C145.161,336.719,123.471,358.414,96.701,358.45z"/>
	<path style="fill:#083863;" d="M358.411,241.45c-37.832-0.006-68.504,30.658-68.51,68.49s30.658,68.504,68.49,68.51
		s68.504-30.658,68.51-68.49c0-0.003,0-0.007,0-0.01C426.858,272.14,396.221,241.498,358.411,241.45z M358.411,358.45
		c-26.786,0.006-48.504-21.704-48.51-48.49s21.704-48.504,48.49-48.51s48.504,21.704,48.51,48.49c0,0.003,0,0.007,0,0.01
		C406.871,336.719,385.181,358.414,358.411,358.45z"/>
</g>
<g>
</g>
<g>
</g>
<g>
</g>
<g>
</g>
<g>
</g>
<g>
</g>
<g>
</g>
<g>
</g>
<g>
</g>
<g>
</g>
<g>
</g>
<g>
</g>
<g>
</g>
<g>
</g>
<g>
</g>
</svg>
